<svg xmlns="http://www.w3.org/2000/svg" viewBox="0 0 512 512" role="img" aria-label="WhatsApp delivery icon">
  <defs>
    <radialGradient id="green" cx="36%" cy="26%" r="72%">
      <stop offset="0%" stop-color="#79f08a"/>
      <stop offset="45%" stop-color="#27cf5f"/>
      <stop offset="100%" stop-color="#0b8f38"/>
    </radialGradient>
    <linearGradient id="boxFront" x1="0" y1="0" x2="1" y2="1">
      <stop offset="0%" stop-color="#e7bb7b"/>
      <stop offset="100%" stop-color="#b67938"/>
    </linearGradient>
    <linearGradient id="boxSide" x1="0" y1="0" x2="1" y2="1">
      <stop offset="0%" stop-color="#dca363"/>
      <stop offset="100%" stop-color="#9b652f"/>
    </linearGradient>
    <filter id="shadow" x="-20%" y="-20%" width="140%" height="150%">
      <feDropShadow dx="0" dy="12" stdDeviation="14" flood-color="#043a19" flood-opacity=".35"/>
    </filter>
  </defs>
  <circle cx="256" cy="256" r="232" fill="url(#green)"/>
  <path d="M118 104c34-32 86-52 138-52 102 0 185 77 190 176 2 34-5 67-20 96" fill="none" stroke="#93f2a0" stroke-width="10" stroke-linecap="round" opacity=".55"/>
  <g filter="url(#shadow)">
    <path d="M126 293h260l54 34-43 116H158L85 389z" fill="url(#boxFront)"/>
    <path d="M126 293l64-36h204l46 70H180z" fill="#efc98e"/>
    <path d="M386 293l54 34-43 116-11-116z" fill="url(#boxSide)"/>
    <path d="M180 327h206v116H158z" fill="#d79b58"/>
    <path d="M223 327h44v116h-44z" fill="#c78d4d" opacity=".68"/>
    <path d="M334 303l31 14-7 38-31-13z" fill="#c7904c"/>
    <path d="M126 293l54 34-22 116-73-54z" fill="#c18545"/>
    <rect x="113" y="338" width="82" height="58" rx="5" fill="#f7dfb9"/>
    <path d="M125 353h56M125 369h42M125 386h56" stroke="#5b371d" stroke-width="7" stroke-linecap="round"/>
    <rect x="207" y="400" width="62" height="22" rx="3" fill="#f7dfb9"/>
    <path d="M217 405v12M227 405v12M237 405v12M248 405v12M258 405v12" stroke="#402817" stroke-width="4"/>
    <rect x="306" y="392" width="64" height="28" rx="4" fill="#e0b072"/>
    <path d="M316 408h34" stroke="#71461f" stroke-width="7" stroke-linecap="round"/>
  </g>
  <g filter="url(#shadow)">
    <path d="M250 88c-80 0-145 61-145 137 0 26 8 51 21 72l-19 69 72-18a152 152 0 0 0 71 17c80 0 145-62 145-140S330 88 250 88z" fill="#fff"/>
    <path d="M250 116c-65 0-118 49-118 109 0 22 7 43 20 61l4 7-10 36 38-10 7 4a124 124 0 0 0 59 15c65 0 118-50 118-113S315 116 250 116z" fill="#25d366"/>
    <path d="M215 165c-6 0-16 2-24 11-8 9-31 30-31 72s32 83 37 89c4 6 62 96 151 134 21 9 38 15 51 19 22 7 42 6 58 4 18-3 55-23 63-44s8-40 5-44c-2-4-8-7-18-12-9-4-54-27-63-30-8-3-15-4-21 5-6 10-24 31-29 37-5 6-11 7-20 2-9-4-39-14-75-45-28-25-46-55-52-64-5-10-1-15 4-20 4-4 9-11 14-16 5-6 6-10 9-17s1-13-1-18c-2-4-21-52-29-71-8-18-16-15-21-16-5 0-12-1-18-1z" fill="#fff" transform="translate(34 -3) scale(.75)"/>
  </g>
</svg>
